<?xml version="1.0" encoding="UTF-8"?>
<svg xmlns="http://www.w3.org/2000/svg" xmlns:xlink="http://www.w3.org/1999/xlink" width="50px" height="32px" viewBox="0 0 50 32" version="1.1">
<g id="surface1">
<path style=" stroke:none;fill-rule:nonzero;fill:rgb(38.431373%,11.764706%,89.803922%);fill-opacity:1;" d="M 2.539062 16.292969 C 2.410156 16.15625 2.257812 16.046875 2.085938 15.96875 C 1.914062 15.894531 1.730469 15.855469 1.542969 15.855469 C 1.355469 15.851562 1.171875 15.894531 1 15.964844 C 0.828125 16.042969 0.675781 16.152344 0.546875 16.289062 C 0.414062 16.421875 0.3125 16.582031 0.246094 16.753906 C 0.175781 16.933594 0.140625 17.121094 0.140625 17.304688 C 0.136719 17.496094 0.171875 17.683594 0.246094 17.855469 C 0.316406 18.03125 0.417969 18.1875 0.550781 18.320312 C 0.808594 18.601562 1.171875 18.753906 1.546875 18.746094 C 1.921875 18.75 2.28125 18.597656 2.542969 18.320312 C 2.679688 18.191406 2.78125 18.035156 2.855469 17.859375 C 2.925781 17.6875 2.960938 17.5 2.960938 17.308594 C 2.960938 17.121094 2.925781 16.933594 2.855469 16.757812 C 2.777344 16.582031 2.675781 16.421875 2.539062 16.292969 Z M 19.214844 13.007812 C 19.195312 13.914062 19.242188 14.824219 19.34375 15.726562 L 19.296875 15.726562 C 19.183594 15.503906 18.9375 15.089844 18.558594 14.488281 L 9.472656 0 L 6.714844 0 L 6.714844 18.496094 L 8.835938 18.496094 L 8.835938 5.125 C 8.859375 4.277344 8.824219 3.433594 8.734375 2.585938 L 8.816406 2.585938 C 8.96875 2.992188 9.164062 3.378906 9.394531 3.746094 L 18.726562 18.496094 L 21.335938 18.496094 L 21.335938 0 L 19.214844 0 Z M 35.710938 16.464844 L 28.21875 16.464844 L 28.21875 10.054688 L 34.773438 10.054688 L 34.773438 8.105469 L 28.21875 8.105469 L 28.21875 1.960938 L 35.25 1.960938 L 35.25 0 L 26.046875 0 L 26.046875 18.496094 L 35.699219 18.496094 Z M 37.332031 0 L 37.332031 1.960938 L 42.550781 1.960938 L 42.550781 18.496094 L 44.671875 18.496094 L 44.671875 1.960938 L 49.953125 1.960938 L 49.953125 0 Z M 16.554688 23.09375 C 16.023438 23.308594 15.546875 23.636719 15.152344 24.054688 C 14.746094 24.496094 14.425781 25.015625 14.21875 25.585938 C 14.011719 26.15625 13.921875 26.757812 13.945312 27.363281 C 13.90625 28.480469 14.285156 29.570312 15.019531 30.40625 C 15.386719 30.796875 15.832031 31.101562 16.328125 31.304688 C 16.820312 31.507812 17.351562 31.597656 17.882812 31.570312 C 18.679688 31.601562 19.472656 31.429688 20.191406 31.074219 L 20.199219 30.128906 C 19.539062 30.523438 18.785156 30.71875 18.019531 30.699219 C 17.609375 30.714844 17.199219 30.640625 16.820312 30.484375 C 16.441406 30.324219 16.101562 30.082031 15.820312 29.773438 C 15.238281 29.085938 14.9375 28.195312 14.984375 27.289062 C 14.9375 26.328125 15.257812 25.390625 15.882812 24.667969 C 16.175781 24.335938 16.539062 24.078125 16.941406 23.902344 C 17.34375 23.726562 17.78125 23.640625 18.21875 23.652344 C 18.917969 23.640625 19.601562 23.816406 20.210938 24.160156 L 20.210938 23.144531 C 19.582031 22.882812 18.902344 22.761719 18.21875 22.789062 C 17.648438 22.777344 17.082031 22.878906 16.554688 23.09375 Z M 26.488281 25.992188 C 25.949219 25.417969 25.191406 25.109375 24.410156 25.152344 C 24 25.132812 23.59375 25.199219 23.210938 25.351562 C 22.828125 25.5 22.480469 25.726562 22.183594 26.011719 C 21.898438 26.335938 21.679688 26.714844 21.535156 27.125 C 21.390625 27.539062 21.332031 27.972656 21.359375 28.410156 C 21.320312 29.238281 21.601562 30.054688 22.144531 30.671875 C 22.417969 30.96875 22.742188 31.203125 23.109375 31.359375 C 23.476562 31.515625 23.871094 31.59375 24.265625 31.574219 C 24.667969 31.589844 25.070312 31.511719 25.445312 31.351562 C 25.820312 31.195312 26.152344 30.957031 26.429688 30.652344 C 26.988281 30.011719 27.277344 29.175781 27.234375 28.320312 C 27.28125 27.472656 27.015625 26.640625 26.488281 25.992188 Z M 25.757812 30.152344 C 25.40625 30.566406 24.878906 30.792969 24.335938 30.761719 C 24.0625 30.773438 23.792969 30.722656 23.539062 30.617188 C 23.289062 30.507812 23.066406 30.34375 22.882812 30.132812 C 22.5 29.65625 22.308594 29.046875 22.34375 28.429688 C 22.308594 27.792969 22.5 27.167969 22.882812 26.664062 C 23.0625 26.453125 23.285156 26.289062 23.535156 26.175781 C 23.789062 26.066406 24.0625 26.011719 24.332031 26.027344 C 24.605469 26.007812 24.871094 26.0625 25.117188 26.171875 C 25.363281 26.28125 25.585938 26.445312 25.757812 26.65625 C 26.121094 27.167969 26.296875 27.789062 26.257812 28.414062 C 26.296875 29.03125 26.121094 29.648438 25.757812 30.152344 Z M 30.378906 25.597656 C 30.078125 25.867188 29.859375 26.21875 29.753906 26.613281 L 29.753906 25.339844 L 28.757812 25.339844 L 28.757812 31.429688 L 29.753906 31.429688 L 29.753906 28.324219 C 29.722656 27.761719 29.863281 27.199219 30.160156 26.722656 C 30.265625 26.546875 30.410156 26.402344 30.585938 26.300781 C 30.761719 26.199219 30.957031 26.140625 31.15625 26.136719 C 31.410156 26.113281 31.664062 26.183594 31.878906 26.328125 L 31.878906 25.324219 C 31.695312 25.265625 31.507812 25.238281 31.316406 25.246094 C 30.972656 25.242188 30.640625 25.367188 30.378906 25.597656 Z M 37.710938 28.109375 C 37.757812 27.335938 37.53125 26.578125 37.074219 25.960938 C 36.847656 25.703125 36.566406 25.496094 36.253906 25.363281 C 35.9375 25.226562 35.597656 25.167969 35.261719 25.1875 C 34.886719 25.175781 34.511719 25.253906 34.164062 25.40625 C 33.820312 25.558594 33.515625 25.789062 33.265625 26.082031 C 32.726562 26.722656 32.445312 27.550781 32.480469 28.394531 C 32.429688 29.234375 32.691406 30.070312 33.207031 30.726562 C 33.457031 31.003906 33.769531 31.222656 34.113281 31.371094 C 34.453125 31.515625 34.828125 31.574219 35.199219 31.558594 C 35.9375 31.597656 36.667969 31.394531 37.28125 30.980469 L 37.28125 30.066406 C 36.753906 30.5 36.101562 30.738281 35.425781 30.746094 C 35.167969 30.761719 34.90625 30.722656 34.660156 30.625 C 34.417969 30.527344 34.195312 30.386719 34.011719 30.195312 C 33.65625 29.757812 33.476562 29.199219 33.507812 28.632812 L 37.71875 28.632812 Z M 33.5 27.828125 C 33.550781 27.34375 33.757812 26.890625 34.085938 26.539062 C 34.378906 26.214844 34.796875 26.035156 35.230469 26.042969 C 35.4375 26.03125 35.640625 26.066406 35.832031 26.148438 C 36.023438 26.226562 36.191406 26.351562 36.328125 26.507812 C 36.605469 26.882812 36.746094 27.34375 36.726562 27.816406 Z M 33.5 27.828125 "/>
</g>
</svg>
