<?xml version="1.0" encoding="UTF-8"?>
<svg xmlns="http://www.w3.org/2000/svg" xmlns:xlink="http://www.w3.org/1999/xlink" width="60px" height="25px" viewBox="0 0 59 25" version="1.1">
<g id="surface1">
<path style=" stroke:none;fill-rule:nonzero;fill:rgb(18.431373%,15.294118%,2.745098%);fill-opacity:1;" d="M 35.257812 8.613281 C 33.96875 8.613281 33.007812 9.246094 33.007812 10.777344 C 33.007812 11.929688 33.640625 12.730469 35.1875 12.730469 C 36.5 12.730469 37.390625 11.957031 37.390625 10.730469 C 37.390625 9.34375 36.59375 8.613281 35.257812 8.613281 Z M 32.679688 19.417969 C 32.375 19.796875 32.070312 20.195312 32.070312 20.667969 C 32.070312 21.609375 33.265625 21.890625 34.90625 21.890625 C 36.265625 21.890625 38.117188 21.796875 38.117188 20.527344 C 38.117188 19.769531 37.226562 19.722656 36.101562 19.652344 Z M 39.621094 8.683594 C 40.039062 9.222656 40.488281 9.976562 40.488281 11.0625 C 40.488281 13.675781 38.445312 15.203125 35.492188 15.203125 C 34.742188 15.203125 34.0625 15.109375 33.640625 14.992188 L 32.867188 16.238281 L 35.164062 16.382812 C 39.222656 16.640625 41.613281 16.757812 41.613281 19.886719 C 41.613281 22.597656 39.242188 24.125 35.164062 24.125 C 30.921875 24.125 29.300781 23.042969 29.300781 21.183594 C 29.300781 20.125 29.773438 19.558594 30.59375 18.78125 C 29.816406 18.453125 29.5625 17.863281 29.5625 17.230469 C 29.5625 16.710938 29.816406 16.238281 30.242188 15.792969 C 30.664062 15.34375 31.132812 14.898438 31.695312 14.378906 C 30.546875 13.816406 29.675781 12.589844 29.675781 10.847656 C 29.675781 8.140625 31.460938 6.28125 35.046875 6.28125 C 36.054688 6.28125 36.664062 6.375 37.203125 6.515625 L 41.777344 6.515625 L 41.777344 8.519531 Z M 45.902344 4.40625 C 44.566406 4.40625 43.792969 3.628906 43.792969 2.285156 C 43.792969 0.945312 44.566406 0.214844 45.902344 0.214844 C 47.261719 0.214844 48.035156 0.945312 48.035156 2.285156 C 48.035156 3.628906 47.261719 4.40625 45.902344 4.40625 Z M 42.875 18.550781 L 42.875 16.695312 L 44.074219 16.53125 C 44.402344 16.480469 44.449219 16.410156 44.449219 16.058594 L 44.449219 9.136719 C 44.449219 8.878906 44.378906 8.710938 44.140625 8.640625 L 42.875 8.195312 L 43.132812 6.289062 L 47.988281 6.289062 L 47.988281 16.058594 C 47.988281 16.433594 48.011719 16.480469 48.363281 16.53125 L 49.558594 16.695312 L 49.558594 18.550781 Z M 58.832031 17.640625 C 57.824219 18.132812 56.34375 18.582031 55.007812 18.582031 C 52.21875 18.582031 51.164062 17.453125 51.164062 14.789062 L 51.164062 8.625 C 51.164062 8.480469 51.164062 8.386719 50.976562 8.386719 L 49.335938 8.386719 L 49.335938 6.292969 C 51.398438 6.054688 52.21875 5.019531 52.476562 2.453125 L 54.703125 2.453125 L 54.703125 5.796875 C 54.703125 5.960938 54.703125 6.035156 54.890625 6.035156 L 58.199219 6.035156 L 58.199219 8.386719 L 54.703125 8.386719 L 54.703125 14.015625 C 54.703125 15.402344 55.03125 15.945312 56.296875 15.945312 C 56.957031 15.945312 57.632812 15.78125 58.199219 15.566406 L 58.832031 17.640625 "/>
<path style=" stroke:none;fill-rule:nonzero;fill:rgb(87.058824%,29.803922%,21.176471%);fill-opacity:1;" d="M 24.089844 11.460938 L 13.371094 0.699219 C 12.753906 0.078125 11.75 0.078125 11.132812 0.699219 L 8.90625 2.933594 L 11.730469 5.769531 C 12.410156 5.539062 13.15625 5.714844 13.664062 6.222656 C 14.171875 6.730469 14.34375 7.488281 14.109375 8.171875 L 16.832031 10.90625 C 17.488281 10.675781 18.25 10.824219 18.773438 11.355469 C 19.511719 12.089844 19.511719 13.289062 18.773438 14.027344 C 18.140625 14.664062 17.148438 14.761719 16.402344 14.261719 C 15.652344 13.761719 15.363281 12.804688 15.703125 11.96875 L 13.167969 9.421875 L 13.167969 16.128906 C 13.351562 16.21875 13.519531 16.339844 13.664062 16.484375 C 14.398438 17.222656 14.398438 18.421875 13.664062 19.15625 C 12.929688 19.894531 11.738281 19.894531 11.003906 19.15625 C 10.558594 18.710938 10.363281 18.070312 10.488281 17.449219 C 10.613281 16.832031 11.035156 16.3125 11.617188 16.074219 L 11.617188 9.304688 C 11.386719 9.210938 11.179688 9.070312 11.003906 8.890625 C 10.445312 8.335938 10.3125 7.515625 10.597656 6.828125 L 7.8125 4.03125 L 0.464844 11.410156 C -0.152344 12.03125 -0.152344 13.039062 0.464844 13.65625 L 11.183594 24.421875 C 11.800781 25.042969 12.800781 25.042969 13.421875 24.421875 L 24.089844 13.707031 C 24.707031 13.085938 24.707031 12.082031 24.089844 11.460938 "/>
</g>
</svg>
