<?xml version="1.0" encoding="UTF-8"?>
<svg xmlns="http://www.w3.org/2000/svg" xmlns:xlink="http://www.w3.org/1999/xlink" width="100px" height="100px" viewBox="0 0 100 100" version="1.1">
<g id="surface1">
<path style=" stroke:none;fill-rule:nonzero;fill:rgb(0%,0%,0%);fill-opacity:1;" d="M 34.601562 27.960938 C 35.921875 28.601562 35.898438 28.519531 35.898438 38.5 C 35.898438 48.5 35.921875 48.398438 34.601562 49.039062 C 33.921875 49.378906 33.980469 49.378906 37.601562 49.378906 C 41.039062 49.359375 41.261719 49.339844 40.601562 49.058594 C 40.199219 48.898438 39.78125 48.601562 39.640625 48.398438 C 39.28125 47.820312 39 45.699219 39 43.460938 L 39 41.441406 L 39.898438 40.320312 C 41.019531 38.960938 42.378906 38 43.378906 37.859375 C 44.019531 37.78125 44.238281 37.859375 44.859375 38.398438 C 45.519531 38.980469 45.71875 39.398438 46.800781 42.761719 C 47.460938 44.820312 48.199219 46.859375 48.460938 47.320312 C 48.878906 48.039062 48.898438 48.179688 48.660156 48.519531 C 47.660156 49.839844 46.621094 52.820312 46.601562 54.339844 C 46.601562 54.78125 46.679688 54.800781 48.019531 54.800781 L 49.460938 54.800781 L 49.339844 53.820312 C 49.179688 52.460938 49.5 50.460938 50.121094 48.921875 C 51.121094 46.378906 53.078125 45.140625 56.101562 45.121094 C 57.480469 45.101562 57.878906 45.179688 59 45.71875 C 60.421875 46.398438 62.199219 47.898438 63.101562 49.199219 L 63.679688 50.039062 L 64.238281 48.578125 L 64.800781 47.121094 L 64.238281 46.660156 C 62.640625 45.320312 59.71875 44.398438 57.058594 44.398438 C 55.039062 44.398438 53.621094 44.738281 52.058594 45.601562 L 51.019531 46.179688 L 50.519531 44.839844 C 50.238281 44.101562 49.660156 42.378906 49.21875 41 C 48.019531 37.238281 46.941406 36.199219 44.460938 36.460938 L 43.378906 36.578125 L 44.019531 35.839844 C 44.359375 35.441406 46.160156 33.519531 48 31.578125 C 50.359375 29.140625 51.558594 28 52.039062 27.859375 C 52.578125 27.679688 52.160156 27.640625 49.898438 27.640625 C 48.039062 27.640625 47.320312 27.699219 47.800781 27.800781 C 48.160156 27.898438 48.601562 28.121094 48.738281 28.320312 C 49.320312 29.101562 49.058594 29.558594 46.441406 32.359375 C 45.019531 33.859375 42.800781 36.238281 41.480469 37.660156 L 39.101562 40.199219 L 39.039062 35.960938 C 38.980469 31.71875 39.179688 29.339844 39.640625 28.601562 C 39.78125 28.378906 40.199219 28.078125 40.601562 27.921875 C 41.261719 27.640625 41.039062 27.621094 37.601562 27.621094 C 33.941406 27.601562 33.898438 27.601562 34.601562 27.960938 Z M 34.601562 27.960938 "/>
<path style=" stroke:none;fill-rule:nonzero;fill:rgb(0%,0%,0%);fill-opacity:1;" d="M 47.398438 58.621094 C 49.941406 65.039062 58.71875 67.101562 63.660156 62.421875 C 64.601562 61.519531 65.578125 60.199219 65.320312 60.199219 C 65.238281 60.199219 64.878906 60.558594 64.480469 61 C 62.839844 62.800781 59.601562 63.761719 56.960938 63.21875 C 54.421875 62.679688 51.679688 60.660156 50.640625 58.539062 L 50.179688 57.601562 L 47 57.601562 Z M 47.398438 58.621094 "/>
</g>
</svg>
