<?xml version="1.0" encoding="UTF-8"?>
<svg xmlns="http://www.w3.org/2000/svg" xmlns:xlink="http://www.w3.org/1999/xlink" width="50px" height="34px" viewBox="0 0 49 34" version="1.1">
<g id="surface1">
<path style=" stroke:none;fill-rule:nonzero;fill:rgb(0%,45.882353%,56.078431%);fill-opacity:1;" d="M 19.984375 22.464844 C 19.214844 26.730469 18.199219 29.835938 16.9375 31.765625 C 15.957031 33.253906 14.882812 34 13.710938 34 C 13.398438 34 13.011719 33.902344 12.554688 33.714844 L 12.554688 32.683594 C 12.777344 32.71875 13.039062 32.734375 13.339844 32.734375 C 13.886719 32.734375 14.328125 32.582031 14.664062 32.273438 C 15.066406 31.898438 15.265625 31.476562 15.265625 31.007812 C 15.265625 30.691406 15.109375 30.035156 14.796875 29.042969 L 12.722656 22.460938 L 14.578125 22.460938 L 16.066406 27.382812 C 16.402344 28.5 16.542969 29.28125 16.484375 29.726562 C 17.300781 27.503906 17.871094 25.082031 18.191406 22.464844 L 19.980469 22.464844 M 11.785156 30.976562 L 9.898438 30.976562 C 9.832031 27.714844 9.648438 24.652344 9.34375 21.777344 L 9.328125 21.777344 L 6.453125 30.976562 L 5.011719 30.976562 L 2.152344 21.777344 L 2.136719 21.777344 C 1.921875 24.535156 1.789062 27.601562 1.734375 30.976562 L 0.0117188 30.976562 C 0.121094 26.871094 0.402344 23.027344 0.847656 19.4375 L 3.1875 19.4375 L 5.914062 27.914062 L 5.933594 27.914062 L 8.675781 19.4375 L 10.917969 19.4375 C 11.40625 23.644531 11.699219 27.488281 11.785156 30.976562 "/>
<path style=" stroke:none;fill-rule:nonzero;fill:rgb(94.901961%,56.862745%,6.666667%);fill-opacity:1;" d="M 45.140625 30.972656 L 39.773438 30.972656 L 39.773438 19.4375 L 41.578125 19.4375 L 41.578125 29.554688 L 45.140625 29.554688 L 45.140625 30.972656 M 31.640625 28.664062 C 31.183594 27.914062 30.953125 26.707031 30.953125 25.042969 C 30.953125 22.136719 31.820312 20.683594 33.546875 20.683594 C 34.449219 20.683594 35.113281 21.03125 35.535156 21.726562 C 35.992188 22.476562 36.222656 23.675781 36.222656 25.316406 C 36.222656 28.246094 35.359375 29.710938 33.628906 29.710938 C 32.726562 29.710938 32.0625 29.363281 31.640625 28.667969 M 38.363281 31.253906 L 36.289062 30.207031 C 36.472656 30.050781 36.648438 29.882812 36.808594 29.691406 C 37.6875 28.632812 38.128906 27.066406 38.128906 24.992188 C 38.128906 21.171875 36.664062 19.265625 33.730469 19.265625 C 32.292969 19.265625 31.171875 19.746094 30.367188 20.71875 C 29.484375 21.777344 29.046875 23.339844 29.046875 25.402344 C 29.046875 27.429688 29.4375 28.917969 30.214844 29.863281 C 30.925781 30.71875 32.003906 31.144531 33.441406 31.144531 C 33.980469 31.144531 34.472656 31.078125 34.921875 30.941406 L 37.625 32.550781 L 38.359375 31.253906 M 28.257812 27.777344 C 28.257812 28.753906 27.90625 29.558594 27.207031 30.1875 C 26.503906 30.8125 25.5625 31.125 24.378906 31.125 C 23.277344 31.125 22.207031 30.765625 21.167969 30.046875 L 21.652344 29.058594 C 22.546875 29.511719 23.351562 29.742188 24.078125 29.742188 C 24.757812 29.742188 25.289062 29.585938 25.675781 29.28125 C 26.058594 28.972656 26.289062 28.542969 26.289062 28 C 26.289062 27.3125 25.820312 26.730469 24.964844 26.238281 C 24.171875 25.785156 23.378906 25.328125 22.589844 24.867188 C 21.734375 24.226562 21.304688 23.539062 21.304688 22.410156 C 21.304688 21.476562 21.625 20.71875 22.265625 20.144531 C 22.90625 19.570312 23.734375 19.28125 24.75 19.28125 C 25.796875 19.28125 26.75 19.566406 27.609375 20.136719 L 27.171875 21.128906 C 26.4375 20.808594 25.714844 20.648438 25 20.648438 C 24.417969 20.648438 23.972656 20.792969 23.660156 21.078125 C 23.347656 21.363281 23.15625 21.726562 23.15625 22.171875 C 23.15625 22.855469 23.632812 23.449219 24.515625 23.949219 C 25.316406 24.394531 26.9375 25.339844 26.9375 25.339844 C 27.820312 25.976562 28.261719 26.65625 28.261719 27.777344 M 46.429688 30.972656 L 46.726562 30.972656 L 46.726562 29.800781 L 47.121094 29.800781 L 47.121094 29.5625 L 46.023438 29.5625 L 46.023438 29.800781 L 46.429688 29.800781 Z M 48.707031 30.972656 L 48.988281 30.972656 L 48.988281 29.5625 L 48.5625 29.5625 L 48.21875 30.523438 L 47.84375 29.5625 L 47.433594 29.5625 L 47.433594 30.972656 L 47.699219 30.972656 L 47.699219 29.898438 L 47.714844 29.898438 L 48.109375 30.972656 L 48.3125 30.972656 L 48.707031 29.898438 Z M 48.707031 30.972656 "/>
<path style=" stroke:none;fill-rule:nonzero;fill:rgb(0%,45.882353%,56.078431%);fill-opacity:1;" d="M 30.125 0.0078125 C 29.648438 0 29.230469 0.183594 29.015625 0.722656 C 28.648438 1.628906 29.5625 2.519531 29.875 2.980469 C 30.109375 3.300781 30.410156 3.664062 30.570312 4.027344 C 30.667969 4.261719 30.695312 4.515625 30.789062 4.765625 C 31.007812 5.378906 31.210938 6.0625 31.5 6.632812 C 31.648438 6.925781 31.8125 7.234375 32.003906 7.496094 C 32.113281 7.652344 32.304688 7.722656 32.34375 7.972656 C 32.15625 8.25 32.140625 8.667969 32.03125 9.019531 C 31.539062 10.59375 31.730469 12.546875 32.425781 13.703125 C 32.644531 14.050781 33.164062 14.820312 33.859375 14.523438 C 34.472656 14.273438 34.335938 13.480469 34.515625 12.785156 C 34.554688 12.613281 34.527344 12.503906 34.609375 12.390625 L 34.609375 12.421875 C 34.800781 12.8125 34.992188 13.1875 35.167969 13.578125 C 35.59375 14.261719 36.328125 14.972656 36.941406 15.445312 C 37.269531 15.695312 37.527344 16.128906 37.9375 16.28125 L 37.9375 16.238281 L 37.910156 16.238281 C 37.828125 16.113281 37.707031 16.058594 37.597656 15.960938 C 37.351562 15.710938 37.078125 15.402344 36.886719 15.125 C 36.316406 14.34375 35.808594 13.480469 35.359375 12.585938 C 35.140625 12.15625 34.953125 11.679688 34.773438 11.25 C 34.691406 11.082031 34.691406 10.832031 34.554688 10.746094 C 34.351562 11.054688 34.050781 11.320312 33.902344 11.695312 C 33.640625 12.292969 33.613281 13.035156 33.519531 13.800781 C 33.464844 13.8125 33.492188 13.800781 33.464844 13.828125 C 33.027344 13.714844 32.878906 13.257812 32.714844 12.867188 C 32.304688 11.875 32.234375 10.285156 32.589844 9.144531 C 32.6875 8.851562 33.097656 7.929688 32.933594 7.652344 C 32.851562 7.386719 32.578125 7.234375 32.425781 7.023438 C 32.238281 6.742188 32.074219 6.445312 31.9375 6.132812 C 31.609375 5.351562 31.445312 4.488281 31.089844 3.707031 C 30.925781 3.34375 30.640625 2.96875 30.410156 2.632812 C 30.148438 2.257812 29.863281 1.992188 29.65625 1.546875 C 29.589844 1.390625 29.496094 1.140625 29.605469 0.972656 C 29.628906 0.863281 29.6875 0.820312 29.796875 0.792969 C 29.972656 0.640625 30.476562 0.832031 30.652344 0.917969 C 31.160156 1.125 31.582031 1.320312 32.003906 1.613281 C 32.195312 1.753906 32.398438 2.019531 32.644531 2.089844 L 32.933594 2.089844 C 33.367188 2.1875 33.859375 2.117188 34.269531 2.242188 C 34.992188 2.476562 35.648438 2.828125 36.234375 3.203125 C 38.042969 4.382812 39.507812 6.027344 40.488281 7.972656 C 40.652344 8.292969 40.722656 8.585938 40.871094 8.917969 C 41.160156 9.601562 41.511719 10.300781 41.800781 10.96875 C 42.085938 11.625 42.359375 12.292969 42.769531 12.835938 C 42.972656 13.128906 43.792969 13.28125 44.160156 13.4375 C 44.433594 13.5625 44.855469 13.671875 45.101562 13.824219 C 45.566406 14.117188 46.027344 14.453125 46.464844 14.773438 C 46.683594 14.941406 47.363281 15.289062 47.40625 15.570312 C 46.316406 15.542969 45.46875 15.652344 44.757812 15.960938 C 44.554688 16.042969 44.226562 16.042969 44.199219 16.308594 C 44.308594 16.417969 44.324219 16.601562 44.417969 16.753906 C 44.582031 17.035156 44.867188 17.410156 45.128906 17.605469 C 45.414062 17.828125 45.703125 18.050781 46.003906 18.246094 C 46.535156 18.582031 47.132812 18.777344 47.652344 19.109375 C 47.953125 19.304688 48.253906 19.558594 48.554688 19.765625 C 48.703125 19.878906 48.796875 20.058594 48.988281 20.128906 L 48.988281 20.085938 C 48.894531 19.960938 48.867188 19.78125 48.769531 19.640625 C 48.636719 19.5 48.5 19.375 48.363281 19.234375 C 47.960938 18.695312 47.484375 18.222656 46.945312 17.828125 C 46.507812 17.519531 45.550781 17.101562 45.375 16.585938 L 45.347656 16.558594 C 45.644531 16.53125 46.003906 16.417969 46.289062 16.335938 C 46.75 16.210938 47.175781 16.238281 47.652344 16.113281 C 47.871094 16.054688 48.089844 15.988281 48.308594 15.917969 L 48.308594 15.792969 C 48.0625 15.542969 47.886719 15.207031 47.625 14.96875 C 46.929688 14.355469 46.167969 13.757812 45.375 13.253906 C 44.949219 12.976562 44.40625 12.796875 43.957031 12.558594 C 43.792969 12.472656 43.519531 12.433594 43.421875 12.292969 C 43.179688 11.984375 43.039062 11.582031 42.863281 11.21875 C 42.460938 10.425781 42.089844 9.617188 41.746094 8.792969 C 41.5 8.25 41.351562 7.707031 41.050781 7.203125 C 39.644531 4.832031 38.117188 3.398438 35.769531 1.988281 C 35.265625 1.695312 34.664062 1.570312 34.023438 1.417969 C 33.683594 1.402344 33.34375 1.375 33 1.363281 C 32.78125 1.265625 32.5625 1 32.375 0.875 C 31.886719 0.558594 30.921875 0.0195312 30.125 0.00390625 Z M 33.492188 3.453125 C 33.257812 3.453125 33.097656 3.480469 32.929688 3.523438 L 32.929688 3.550781 L 32.957031 3.550781 C 33.066406 3.773438 33.257812 3.929688 33.394531 4.121094 C 33.503906 4.347656 33.597656 4.570312 33.707031 4.792969 L 33.734375 4.765625 C 33.925781 4.625 34.023438 4.402344 34.023438 4.066406 C 33.941406 3.96875 33.925781 3.871094 33.859375 3.773438 C 33.777344 3.636719 33.597656 3.566406 33.492188 3.453125 Z M 33.492188 3.453125 "/>
</g>
</svg>
