<?xml version="1.0" encoding="UTF-8"?>
<svg xmlns="http://www.w3.org/2000/svg" xmlns:xlink="http://www.w3.org/1999/xlink" width="60px" height="67px" viewBox="0 0 60 67" version="1.1">
<defs>
<linearGradient id="linear0" gradientUnits="userSpaceOnUse" x1="12914.6377" y1="-27007.6797" x2="12991.0264" y2="-27073.4023" gradientTransform="matrix(0.267009,0,0,-0.269233,-3441.333984,-7270.32904)">
<stop offset="0" style="stop-color:rgb(36.078431%,62.745098%,83.529412%);stop-opacity:1;"/>
<stop offset="1" style="stop-color:rgb(19.215686%,41.568627%,60%);stop-opacity:1;"/>
</linearGradient>
<linearGradient id="linear1" gradientUnits="userSpaceOnUse" x1="13020.6973" y1="-27113.1328" x2="12993.4189" y2="-27074.5391" gradientTransform="matrix(0.267009,0,0,-0.269233,-3441.333984,-7270.32904)">
<stop offset="0" style="stop-color:rgb(100%,83.137255%,24.313725%);stop-opacity:1;"/>
<stop offset="1" style="stop-color:rgb(100%,91.372549%,45.882353%);stop-opacity:1;"/>
</linearGradient>
<filter id="alpha" filterUnits="objectBoundingBox" x="0%" y="0%" width="100%" height="100%">
  <feColorMatrix type="matrix" in="SourceGraphic" values="0 0 0 0 1 0 0 0 0 1 0 0 0 0 1 0 0 0 1 0"/>
</filter>
<mask id="mask0">
  <g filter="url(#alpha)">
<rect x="0" y="0" width="60" height="67" style="fill:rgb(0%,0%,0%);fill-opacity:0.443137;stroke:none;"/>
  </g>
</mask>
<radialGradient id="radial0" gradientUnits="userSpaceOnUse" cx="-83039.6641" cy="-13866.3984" fx="-83039.6641" fy="-13866.3984" r="20.3396" gradientTransform="matrix(0,-0.113713,-0.500648,0,-6915.707634,-9400.666556)">
<stop offset="0" style="stop-color:rgb(72.156863%,72.156863%,72.156863%);stop-opacity:0.498039;"/>
<stop offset="1" style="stop-color:rgb(49.803922%,50.196078%,50.196078%);stop-opacity:0;"/>
</radialGradient>
<clipPath id="clip1">
  <rect x="0" y="0" width="60" height="67"/>
</clipPath>
<g id="surface5" clip-path="url(#clip1)">
<path style=" stroke:none;fill-rule:nonzero;fill:url(#radial0);" d="M 38.449219 42.394531 C 38.449219 43.671875 33.085938 44.714844 26.488281 44.714844 C 19.886719 44.714844 14.523438 43.671875 14.523438 42.394531 C 14.523438 41.113281 19.886719 40.070312 26.488281 40.070312 C 33.085938 40.070312 38.449219 41.113281 38.449219 42.394531 Z M 38.449219 42.394531 "/>
</g>
</defs>
<g id="surface1">
<path style=" stroke:none;fill-rule:nonzero;fill:rgb(39.607843%,39.607843%,39.607843%);fill-opacity:1;" d="M 6.550781 57.277344 C 6.550781 54.621094 5.792969 53.296875 4.273438 53.246094 C 3.65625 53.199219 3.085938 53.34375 2.515625 53.53125 C 2.039062 53.671875 1.757812 53.863281 1.613281 54.007812 L 1.613281 60.265625 C 2.5625 60.878906 3.414062 61.164062 4.175781 61.117188 C 5.742188 60.972656 6.550781 59.695312 6.550781 57.277344 Z M 8.402344 57.371094 C 8.402344 58.699219 8.117188 59.789062 7.453125 60.691406 C 6.742188 61.6875 5.792969 62.207031 4.511719 62.207031 C 3.5625 62.253906 2.613281 61.921875 1.617188 61.308594 L 1.617188 66.996094 L 0 66.425781 L 0 53.769531 C 0.285156 53.4375 0.617188 53.152344 1 52.914062 C 1.945312 52.347656 3.136719 52.0625 4.460938 52.0625 C 5.695312 52.0625 6.691406 52.585938 7.359375 53.582031 C 8.066406 54.671875 8.402344 55.855469 8.402344 57.371094 Z M 18.226562 61.117188 C 18.226562 62.917969 18.039062 64.148438 17.707031 64.816406 C 17.324219 65.476562 16.660156 66.046875 15.664062 66.472656 C 14.808594 66.804688 13.957031 66.996094 13.003906 66.996094 L 12.71875 66 C 13.714844 65.859375 14.378906 65.714844 14.761719 65.617188 C 15.519531 65.332031 16.089844 64.957031 16.375 64.386719 C 16.609375 63.960938 16.703125 63.105469 16.703125 61.875 L 16.703125 61.449219 C 15.613281 61.96875 14.425781 62.207031 13.242188 62.207031 C 12.433594 62.207031 11.71875 61.96875 11.152344 61.449219 C 10.488281 60.925781 10.152344 60.214844 10.152344 59.363281 L 10.152344 52.679688 L 11.765625 52.113281 L 11.765625 58.84375 C 11.765625 59.554688 12.003906 60.121094 12.480469 60.503906 C 12.953125 60.882812 13.523438 61.070312 14.28125 61.070312 C 15.039062 61.070312 15.800781 60.785156 16.65625 60.21875 L 16.65625 52.34375 L 18.269531 52.34375 Z M 24.492188 62.160156 L 23.972656 62.160156 C 23.066406 62.160156 22.359375 61.921875 21.832031 61.496094 C 21.3125 61.070312 21.074219 60.453125 21.074219 59.695312 L 21.074219 53.34375 L 19.984375 53.34375 L 19.984375 52.34375 L 21.074219 52.34375 L 21.074219 49.644531 L 22.6875 49.078125 L 22.6875 52.34375 L 24.492188 52.34375 L 24.492188 53.34375 L 22.6875 53.34375 L 22.6875 59.597656 C 22.6875 60.214844 22.828125 60.640625 23.164062 60.878906 C 23.449219 61.066406 23.875 61.207031 24.492188 61.257812 Z M 34.273438 62.015625 L 32.660156 62.015625 L 32.660156 55.804688 C 32.660156 55.1875 32.519531 54.621094 32.234375 54.195312 C 31.902344 53.671875 31.425781 53.4375 30.808594 53.4375 C 30.050781 53.4375 29.144531 53.816406 28.054688 54.621094 L 28.054688 62.0625 L 26.441406 62.0625 L 26.441406 47.226562 L 28.054688 46.707031 L 28.054688 53.4375 C 29.101562 52.679688 30.191406 52.300781 31.425781 52.300781 C 32.277344 52.300781 32.945312 52.585938 33.511719 53.152344 C 34.035156 53.71875 34.320312 54.429688 34.320312 55.285156 Z M 42.816406 56.992188 C 42.816406 55.996094 42.625 55.140625 42.25 54.480469 C 41.773438 53.671875 41.109375 53.246094 40.109375 53.199219 C 38.355469 53.296875 37.449219 54.574219 37.449219 56.992188 C 37.449219 58.128906 37.640625 59.03125 38.019531 59.789062 C 38.496094 60.738281 39.203125 61.210938 40.15625 61.210938 C 41.914062 61.164062 42.816406 59.789062 42.816406 56.992188 Z M 44.574219 56.992188 C 44.574219 58.414062 44.191406 59.648438 43.484375 60.59375 C 42.675781 61.636719 41.535156 62.207031 40.160156 62.207031 C 38.734375 62.207031 37.644531 61.683594 36.835938 60.59375 C 36.125 59.648438 35.746094 58.460938 35.746094 56.992188 C 35.746094 55.617188 36.125 54.480469 36.933594 53.578125 C 37.785156 52.582031 38.828125 52.109375 40.160156 52.109375 C 41.488281 52.109375 42.578125 52.585938 43.433594 53.578125 C 44.191406 54.527344 44.574219 55.664062 44.574219 56.992188 Z M 53.828125 62.015625 L 52.21875 62.015625 L 52.21875 55.472656 C 52.21875 54.761719 51.980469 54.195312 51.554688 53.816406 C 51.125 53.433594 50.554688 53.199219 49.796875 53.246094 C 49.039062 53.246094 48.277344 53.53125 47.613281 54.003906 L 47.613281 62.109375 L 46 62.109375 L 46 53.816406 C 46.902344 53.152344 47.757812 52.675781 48.566406 52.488281 C 49.324219 52.296875 49.941406 52.203125 50.511719 52.203125 C 50.894531 52.203125 51.269531 52.246094 51.601562 52.296875 C 52.21875 52.4375 52.742188 52.722656 53.125 53.101562 C 53.550781 53.53125 53.785156 54.101562 53.785156 54.714844 Z M 53.828125 62.015625 "/>
<path style=" stroke:none;fill-rule:nonzero;fill:url(#linear0);" d="M 26.203125 0.015625 C 24.683594 0.015625 23.210938 0.15625 21.933594 0.394531 C 18.136719 1.058594 17.46875 2.433594 17.46875 5.042969 L 17.46875 8.457031 L 26.394531 8.457031 L 26.394531 9.59375 L 14.144531 9.59375 C 11.582031 9.59375 9.304688 11.15625 8.59375 14.09375 C 7.785156 17.507812 7.738281 19.59375 8.59375 23.148438 C 9.210938 25.804688 10.730469 27.652344 13.339844 27.652344 L 16.429688 27.652344 L 16.429688 23.574219 C 16.429688 20.636719 18.992188 18.03125 21.980469 18.03125 L 30.855469 18.03125 C 33.324219 18.03125 35.320312 15.992188 35.320312 13.480469 L 35.320312 4.992188 C 35.320312 2.578125 33.277344 0.773438 30.855469 0.347656 C 29.289062 0.109375 27.722656 -0.03125 26.203125 0.015625 Z M 21.359375 2.71875 C 22.261719 2.71875 23.023438 3.476562 23.023438 4.421875 C 23.023438 5.371094 22.261719 6.128906 21.359375 6.128906 C 20.457031 6.128906 19.699219 5.371094 19.699219 4.421875 C 19.699219 3.476562 20.410156 2.71875 21.359375 2.71875 Z M 21.359375 2.71875 "/>
<path style=" stroke:none;fill-rule:nonzero;fill:url(#linear1);" d="M 36.410156 9.496094 L 36.410156 13.429688 C 36.410156 16.511719 33.800781 19.070312 30.808594 19.070312 L 21.933594 19.070312 C 19.511719 19.070312 17.46875 21.15625 17.46875 23.621094 L 17.46875 32.105469 C 17.46875 34.523438 19.558594 35.945312 21.933594 36.660156 C 24.734375 37.511719 27.4375 37.65625 30.855469 36.660156 C 33.085938 35.996094 35.320312 34.714844 35.320312 32.105469 L 35.320312 28.695312 L 26.390625 28.695312 L 26.390625 27.554688 L 39.777344 27.554688 C 42.34375 27.554688 43.339844 25.753906 44.242188 23.054688 C 45.191406 20.257812 45.144531 17.605469 44.242188 14 C 43.625 11.441406 42.390625 9.5 39.777344 9.5 Z M 31.375 30.96875 C 32.277344 30.96875 33.039062 31.726562 33.039062 32.675781 C 33.039062 33.621094 32.277344 34.378906 31.375 34.378906 C 30.472656 34.378906 29.714844 33.621094 29.714844 32.675781 C 29.714844 31.726562 30.476562 30.96875 31.375 30.96875 Z M 31.375 30.96875 "/>
<path style=" stroke:none;fill-rule:nonzero;fill:rgb(39.607843%,39.607843%,39.607843%);fill-opacity:1;" d="M 56.914062 50.925781 L 57.199219 50.925781 L 57.199219 49.171875 L 57.863281 49.171875 L 57.863281 48.933594 L 56.25 48.933594 L 56.25 49.171875 L 56.914062 49.171875 Z M 58.148438 50.925781 L 58.382812 50.925781 L 58.382812 49.316406 L 58.90625 50.925781 L 59.191406 50.925781 L 59.714844 49.316406 L 59.714844 50.925781 L 60 50.925781 L 60 48.933594 L 59.667969 48.933594 L 59.050781 50.640625 L 58.527344 48.933594 L 58.148438 48.933594 Z M 58.148438 50.925781 "/>
<use xlink:href="#surface5" mask="url(#mask0)"/>
</g>
</svg>
